<?xml version="1.0" encoding="utf-8"?>
<!-- Generator: Adobe Illustrator 19.2.1, SVG Export Plug-In . SVG Version: 6.00 Build 0)  -->
<svg version="1.1" id="Capa_1" xmlns="http://www.w3.org/2000/svg" xmlns:xlink="http://www.w3.org/1999/xlink" x="0px" y="0px"
	 viewBox="0 0 40 40" style="enable-background:new 0 0 40 40;" xml:space="preserve">
<path d="M38,17.7C38,17.6,38,17.6,38,17.7c-0.1-0.1-0.2-0.1-0.2-0.1L32,12.5V8c0-0.8-0.4-2-1.2-2h-5.1c0,0,0,0.1-0.1,0.1l-4.5-4
	C20.4,1.6,19.6,1.4,19,2l-4.6,4H9.2C8.4,6,8,7.1,8,8v4.5l-5.8,5.1H2.1L2,17.7l0,0v1v8.8v6.6C2,36.6,3.6,38,6.2,38h27.7
	c2.5,0,4.2-1.4,4.2-3.9V25v-6.3v-1H38z M32,16.6l2.2,2L32,20.5V16.6z M20,5l1.1,1h-2.2L20,5z M11,9h18v4.2l0,0v9.7l-3.4,2.8
	l-4.1-3.4c-0.9-0.7-2.2-0.7-3.1,0l-4,3.4L11,22.9V9z M8,16.6v3.9l-2.2-1.8L8,16.6z M5,33.6V21.9l7.2,5.8L5,33.6z M7.1,35L20,24.4
	L32.9,35H7.1z M35,33.6l-7.2-5.9l7.2-5.8V33.6z"/>
</svg>
