<?xml version="1.0" encoding="utf-8"?>
<!-- Generator: Adobe Illustrator 19.2.1, SVG Export Plug-In . SVG Version: 6.00 Build 0)  -->
<svg version="1.1" id="Capa_1" xmlns="http://www.w3.org/2000/svg" xmlns:xlink="http://www.w3.org/1999/xlink" x="0px" y="0px"
	 viewBox="0 0 40 40" style="enable-background:new 0 0 40 40;" xml:space="preserve">
<g>
	<path d="M26.9,25.5c-2.7-1.6-5.8-2.4-9.3-2.4c-2,0-4,0.3-6,0.7c-0.5,0.1-0.9,0.4-0.9,1.1c0,0.5,0.4,1,1,1c0.2,0,0.5-0.1,0.8-0.2
		c1.6-0.3,3.3-0.6,5.1-0.6c3.1,0,6,0.7,8.3,2.1c0.2,0.1,0.4,0.2,0.7,0.2c0.5,0,1-0.4,1-1C27.5,26,27.3,25.7,26.9,25.5z"/>
	<path d="M28.8,20.8c-3.2-1.9-7.2-3-11.4-3c-2.7,0-4.5,0.4-6.3,0.9c-0.7,0.2-1,0.7-1,1.3c0,0.7,0.6,1.3,1.3,1.3
		c0.3,0,0.5-0.1,0.8-0.2c1.5-0.4,3.2-0.7,5.2-0.7c4,0,7.6,1,10.2,2.6c0.2,0.1,0.5,0.3,0.8,0.3c0.7,0,1.2-0.6,1.2-1.3
		C29.5,21.5,29.3,21.1,28.8,20.8z"/>
	<path d="M30.9,15.4c-3.6-2.1-8.6-3.1-13.3-3.1c-2.8,0-5.3,0.3-7.6,1c-0.6,0.2-1.1,0.7-1.1,1.5c0,0.9,0.7,1.5,1.5,1.5
		c0.3,0,0.6-0.1,0.8-0.2c2-0.5,4.2-0.8,6.4-0.8c4.4,0,8.9,1,11.8,2.7c0.3,0.2,0.5,0.2,0.8,0.2c0.8,0,1.5-0.6,1.5-1.5
		C31.7,16.1,31.4,15.7,30.9,15.4z"/>
	<path d="M20,1.3C9.7,1.3,1.3,9.7,1.3,20S9.7,38.7,20,38.7S38.7,30.3,38.7,20S30.3,1.3,20,1.3z M20,36c-8.9,0-16-7.2-16-16
		S11.1,4,20,4s16,7.2,16,16S28.9,36,20,36z"/>
</g>
</svg>
