<svg xmlns="http://www.w3.org/2000/svg" viewBox="0 0 278 206.583"><defs><style>.a{fill:#fff;}</style></defs><path class="a" d="M277.868,153.233a1.213,1.213,0,0,1-.855.321c-.748,0-2.886,1.817-4.809-.107-.214-.214-1.389-.748-1.5-1.069-.321-1.176-.321-3.527.748-3.527,1.176,0,2.351-.321,3.634-.321a2.251,2.251,0,0,1,1.924,1.176,26.738,26.738,0,0,1,.962,2.672C277.761,152.592,277.975,153.02,277.868,153.233Zm-17.1-2.565a1.2,1.2,0,0,1-.534.855A10.376,10.376,0,0,1,256.6,152.7c-1.71.107-3.527.321-5.237.534h-.214c-1.6.855-3.206.107-4.809.321s-3.206.321-4.809.534c-.321,0-.534.321-.855.427a1.579,1.579,0,0,1-.962.107,4.91,4.91,0,0,0-2.458-.321c-2.137,0-4.168-.214-6.305-.214h-1.71a68.362,68.362,0,0,0-14-1.389c-7.908.321-16.031.427-23.832,1.71a1.162,1.162,0,0,0-.534-.107c-1.069.107-2.137.427-3.206.641-.107,0-.214.107-.321.107a17.476,17.476,0,0,0-2.351-.214c-1.176-.107-2.351-.107-3.42-.107a10.972,10.972,0,0,0-2.565.534c-.214,0-.534,0-.641-.107-.534-.641-1.282-.427-1.924-.321a1.356,1.356,0,0,1-.641.107,3.265,3.265,0,0,0-2.031.107c-.748-.107-1.389-.107-2.137-.214-3.206-.427-6.092-.748-9.191.214a3.349,3.349,0,0,0-1.176.855c-.534.107-1.176.214-1.71.321h-.107c-1.6.962-3.206-.107-4.809-.214a5.406,5.406,0,0,1-3.206-1.282c-.641-.748-1.389-.855-2.031-1.282a1.934,1.934,0,0,0-2.458,0,2.154,2.154,0,0,1-1.176.321,5.347,5.347,0,0,0-3.1.748,11.6,11.6,0,0,1-4.275,1.71c-1.176.214-2.351.748-3.527,1.069a4,4,0,0,1-4.061-.748c-.214-.214-.641-.107-.962-.214-1.6-.534-2.137-1.71-1.924-3.527a9.485,9.485,0,0,1-1.5.321c-1.6.214-2.672,1.389-3.954,2.244-.321.214-.748.107-1.176.214-2.672,1.069-5.237,2.351-7.909,3.206a8.176,8.176,0,0,1-4.809.641c-.214,0-.427-.107-.641,0-1.5.641-2.672.107-4.061-.534-1.6-.748-2.351-2.351-3.741-3.313-.214-.107-.107-.641,0-.962,0-.641.214-1.176-.321-1.71a2,2,0,0,1-.214-1.6c.107-.641.107-1.282-.641-1.282-.427,0-.855.427-1.282.748-.321.321-.641.748-.962,1.069s-.962.214-.641.962c0,.107-.321.321-.534.427-.748.427-1.5.748-1.817,1.71-.107.321-.641.534-1.069.748-1.71,1.176-3.313,2.244-5.023,3.42a29.394,29.394,0,0,1-2.992,2.031c-.534.321-1.389.107-2.031.214-.427.107-.962.107-1.282.427a3.421,3.421,0,0,1-2.672.534,2.914,2.914,0,0,1-1.6-1.389,2.834,2.834,0,0,0-.534-.641c-.962-.641-1.069-.641-1.6.427a15.3,15.3,0,0,1-1.282,2.244c-.107.107-.214.321-.321.427-1.6,1.282-2.031,3.313-2.458,5.45a21.36,21.36,0,0,0-1.069,2.244c-1.817,4.061-4.061,7.695-6.092,11.649-3.527,6.947-6.412,14.321-9.3,21.695-.534.855-.962,1.6-1.389,2.458a.393.393,0,0,1-.321-.107c-.107-1.389-.321-2.779-.427-4.168a52.006,52.006,0,0,1-.107-5.771,2.083,2.083,0,0,0-.107-.855,72.533,72.533,0,0,0-.214-10.794c-.748-7.695-3.1-15.176-2.886-22.977.107-2.244-3.1-2.565-3.847-.855a2.335,2.335,0,0,0-.534.321c-.855.427-1.71.962-2.565,1.5-1.069.641-2.137,1.176-3.206,1.817-.214.107-.534.321-.748.427-.641.427-1.389.962-2.031,1.389a41.432,41.432,0,0,1-3.527,2.458,25.5,25.5,0,0,1-2.351,1.282c-.534.321-.855.748-1.389,1.069-.534.427-1.069.962-1.71,1.389a5.509,5.509,0,0,1-2.137.962,12.88,12.88,0,0,1-2.031,0c-.748,0-1.5-.214-2.244-.214-.534,0-.962-.107-1.176-.534a11.635,11.635,0,0,1-1.5-2.458c-.321-.855-.962-1.6-.641-2.672.107-.427-.427-1.176-.641-1.71h-.427a4.332,4.332,0,0,0-.534.962c-.321.641-.748,1.176-1.5,1.069-.214,0-.321.107-.534.214a31.2,31.2,0,0,0-2.992,2.244c-.534.427-.855,1.069-1.389,1.5a21.4,21.4,0,0,1-2.565,1.71c-.855.534-1.71.962-2.458,1.5a4.452,4.452,0,0,1-4.168.534c-.534-1.6.641-2.565,1.6-3.634.855-.855,1.817-1.5,2.137-2.779a5.614,5.614,0,0,1,1.6-2.031c.534-.641,1.282-1.176,1.71-1.817,1.389-2.031,3.634-2.992,5.45-4.489,2.031-1.71,4.061-3.527,6.092-5.344.855-.748,1.817-1.6,2.672-2.458.321-.427.748-.748,1.069-1.176,3.1-2.565,6.092-5.237,9.4-7.481,3.42-2.351,7.481-4.6,9.3-8.55,0-.107,0-.107.107-.214a8.84,8.84,0,0,1,1.71-.962c.534-.321,1.069-.641.534-1.389-.107-.214,0-.534,0-.855a2.454,2.454,0,0,0-.427-1.5c.214-3.527.962-9.084-1.176-12.4-.321-2.565-.214-5.237-.534-7.8-.321-3.527-.641-7.16-1.176-10.794.107-1.5.107-2.565.107-2.672a2.5,2.5,0,0,0-1.069-2.137c-.107-.107-.107-.427-.214-.641-.107-.427-.107-.748-.214-1.176-.107-.855-.534-1.817.534-2.458a.81.81,0,0,0,.214-.427c-.107-.962.534-.962,1.069-.641h0A37.116,37.116,0,0,0,48.2,100.439a38.213,38.213,0,0,1,5.878,5.878,11.32,11.32,0,0,0,1.069,1.282,2.775,2.775,0,0,1-3.42.641,14.547,14.547,0,0,0-2.672-1.176c-.107-.107-.321-.107-.427-.214a18.576,18.576,0,0,1-1.389-1.6,15,15,0,0,1-1.282-1.924,6.915,6.915,0,0,0-.855.962l.107.107a.8.8,0,0,0-.534.962c.855,2.672-.427,6.092,1.389,8.55a33.036,33.036,0,0,0,2.031,10.26,2.232,2.232,0,0,0,.855,1.069,4.814,4.814,0,0,0,1.389,3.527c.427-.321.748-.641,1.176-.962a9.853,9.853,0,0,0,3.313-2.992c.321-.534.962-.748,1.389-1.176a46.485,46.485,0,0,0,4.061-3.847,17.832,17.832,0,0,1,2.992-2.672c.214-.107.534-.321.534-.427.107-1.069.962-1.282,1.71-1.817,1.069-.855,2.031-1.817,3.1-2.779a5.352,5.352,0,0,0,.855-.748,28.02,28.02,0,0,0,2.672-2.351c.748-.748,1.5-1.5,2.244-2.137a.331.331,0,0,1,.214-.107c.214-1.924,2.137-2.031,3.206-3.1,2.137-2.351,4.6-4.6,6.84-6.84.641-.641,1.389-1.069,2.031-1.6a10.933,10.933,0,0,0,2.672-2.779c.427-.962,1.282-1.282,1.924-1.817a19.354,19.354,0,0,0,1.924-2.244c.748-.748,1.6-1.389,2.351-2.137.855-.748,1.6-1.6,2.351-2.351,1.389-1.389,2.886-2.672,4.275-4.061s2.672-2.886,4.061-4.275c1.176-1.176,2.565-2.351,3.741-3.527s2.244-2.351,3.42-3.527c.748-.641,1.069-1.71,2.137-2.031.641-.214,1.069-.855,1.6-1.389.962-.962,1.817-1.924,2.779-2.779.534-.534,1.176-.962,1.71-1.5.962-.855,2.031-1.6,2.992-2.458a20.519,20.519,0,0,1,1.6-1.5c.641-.641,1.389-1.176,2.137-1.817,1.389-1.176,2.672-2.244,4.061-3.42.214-.214.427-.321.641-.534a34.036,34.036,0,0,0,7.588-7.054,35.347,35.347,0,0,1,3.527-3.42c.107-.107.214-.107.321-.214.214-1.282,1.389-1.6,2.244-2.244.641-.427.855-1.389,1.389-1.924.855-.855,1.924-1.5,2.886-2.351a4.732,4.732,0,0,0,1.282-1.6,4.429,4.429,0,0,1,2.351-1.817c.214-.107.321-.427.534-.641l.962-.962a19.746,19.746,0,0,0,1.5-1.5c.534-.534.855-1.176,1.389-1.6.855-.641,1.817-1.069,2.031-2.244,0-.214.427-.427.641-.641,1.389-1.069,2.886-2.244,4.275-3.313.107-.107.214-.107.214-.214.534-1.71,2.458-1.817,3.42-2.992a61.538,61.538,0,0,1,4.7-4.382.1.1,0,0,1,.107-.107c1.924-.855,2.992-2.779,4.7-3.847.214-.107.427-.107.641-.321a11.361,11.361,0,0,0,1.176-.962c.855-.748,1.6-1.5,2.458-2.137,1.282-.962,2.565-1.817,3.847-2.779.641-.427,1.176-1.069,1.817-1.5.107.107.214.214.214.321-.641.534-1.389,1.176-2.031,1.71a4.153,4.153,0,0,0-1.71,3.42,4.168,4.168,0,0,1-.855,2.031c-.748,1.069-1.71,1.924-2.458,2.992a.642.642,0,0,0-.107.427c.748,1.282-.427,1.817-.962,2.351-1.71,1.924-3.527,3.741-5.344,5.45-1.069,1.069-2.351,2.031-3.42,3.1a23.485,23.485,0,0,0-2.137,2.458c-1.069,1.176-2.137,2.244-3.1,3.42L163.3,32.789c-.962,1.176-2.137,2.351-3.1,3.527-.427.534-.748,1.069-1.176,1.71-.534.855-1.176,1.6-1.71,2.351a9.3,9.3,0,0,1-1.817,2.244c-1.71,1.389-2.672,3.313-4.168,4.809-.214.214-.214.534-.321.748s-.107.534-.321.641c-1.5.962-2.137,2.672-3.527,3.847a26,26,0,0,0-2.137,2.672,5.926,5.926,0,0,1-.641.855,3.245,3.245,0,0,0-1.282,2.244c0,.748-.534.962-1.176,1.176-.321.107-.641.534-.962.855-.321.427-.427.962-.748,1.389-1.282,1.5-2.565,2.992-3.847,4.382-.748.855-1.5,1.71-2.244,2.672-.855,1.176-1.71,2.351-2.565,3.634a1.475,1.475,0,0,0-.321.427c-.855,1.069-1.71,2.031-2.458,3.1-.107.107-.214.214-.214.321a4.66,4.66,0,0,1-1.817,2.672c-.855.855-1.5,1.924-2.351,2.886-.321.427-.748.748-1.069,1.176s-.427.962-.748,1.389c-.641.855-1.282,1.817-1.924,2.672a41.879,41.879,0,0,1-2.672,3.42c-1.282,1.6-2.565,3.206-3.741,4.809-.748.962-1.282,1.924-1.924,2.886-.107.214-.321.321-.427.534l-2.565,3.206c-.855,1.069-1.6,2.244-2.458,3.313-.214.427-.321.962-.534,1.282a13.988,13.988,0,0,1-2.031,2.886,17.426,17.426,0,0,0-2.458,3.1c-.748.962-1.389,1.924-2.031,2.886-.321.427-.962.748-1.176,1.282a16.126,16.126,0,0,0-1.6,2.992c-.641,1.817-2.137,2.886-2.992,4.382-.321.534-.534,1.176-.855,1.71-.855,1.282-1.71,2.458-2.458,3.741A2.724,2.724,0,0,0,90.522,131a10.649,10.649,0,0,0-2.244,3.313c-.534,1.176-1.389,2.137-1.282,3.527a11.748,11.748,0,0,0-1.71,1.6,24.159,24.159,0,0,0-1.71,2.779,27.031,27.031,0,0,1-1.389,2.351,3.289,3.289,0,0,0-.107,2.992c.214.962.962,1.71,1.176,2.672a6.924,6.924,0,0,1,.214,2.137.71.71,0,0,1-.427.534.393.393,0,0,1-.321.107.716.716,0,0,0-.427,1.176,1.294,1.294,0,0,0,1.069-.107,2.632,2.632,0,0,1,2.031-.962,7.367,7.367,0,0,0,.855-.321c2.351-1.389,4.6-2.779,6.947-4.061a22.832,22.832,0,0,1,2.886-.962c.321-.107.641-.107.855-.321,1.176-.855,2.672-.641,3.954-.855,1.6-.321,2.672,0,3.206,1.71.321.855,1.176,1.5.641,2.565-.107.214.321.534.427.855l.641,1.924c.107.214.427.427.641.641l.214-.107c0,.321-.107.641-.107.962a3.4,3.4,0,0,0,2.886,0c1.5-.534,2.992-.855,4.489-1.282,1.282-.427,2.458-.962,3.741-1.389.855-.321,1.71-.427,2.565-.748a2.767,2.767,0,0,0,1.176-.748,6.914,6.914,0,0,0,.962-.855,1.832,1.832,0,0,0,2.458.214c1.282-.855,2.565-.321,3.847-.321a4.626,4.626,0,0,1,1.71.107c.855.321,1.817.427,2.351,1.5.534.962,1.282,1.176,2.458.641a13.054,13.054,0,0,1,2.779-.641,23.083,23.083,0,0,0,2.672-1.069,2.939,2.939,0,0,0,2.992.107c.214-.107.641-.107.855-.214,1.282-.107,2.458-.321,3.741-.321,1.176,0,2.351.214,3.527.321a8.518,8.518,0,0,0,1.6.321,2.99,2.99,0,0,1,2.672,1.71c.321.534.641.641,1.282.427a16.721,16.721,0,0,1,3.313-.214c.855-.107,1.924.214,2.672-.214a3.677,3.677,0,0,1,2.992-.214c.534.214,1.282,0,1.817.214a2.976,2.976,0,0,0,2.672-.534,1.173,1.173,0,0,1,1.71.107,1.453,1.453,0,0,0,1.817.107.959.959,0,0,1,1.176,0c.641.321,1.6.641,2.137.321,1.5-.748,2.779,0,4.275,0a4.628,4.628,0,0,1,.534.107c1.6-.214,3.1-.427,4.7-.748a.816.816,0,0,0,.534-.214c14.321-.534,28.855.534,43.283-.321a96.8,96.8,0,0,0,16.672.748,1.972,1.972,0,0,0,1.924-1.817,14.323,14.323,0,0,1,2.137-.107c1.924.107,3.741-.214,5.664.214.321.107.748-.214,1.176-.321A1.348,1.348,0,0,1,260.768,150.668Zm-214.491,3.74a1.171,1.171,0,0,1,0-.855c0-.641.107-1.282.107-1.924-.321-.107-.641-.107-.855-.214a8.684,8.684,0,0,0,0-4.382c-.107-.321-.214-.855-.427-.962-.641-.427-.534-.748-.321-1.282l.321-.641c-.107-.107-.214-.107-.214-.214-.641.427-1.176.962-1.817,1.389l-1.282.962h-.107c-3.954,1.6-6.626,4.489-9.832,7.16-2.992,2.672-6.84,4.7-8.977,8.122v.107c-.962,1.069-.962,2.137-.107,3.954a.643.643,0,0,1,.107.427c.214.855.321,1.71.534,2.779a6.221,6.221,0,0,0,1.176-.534c1.6-1.069,3.1-2.351,4.7-3.42,2.031-1.282,4.168-2.565,6.2-3.847,1.069-.641,2.244-1.282,3.313-2.031,1.389-.855,2.779-1.6,4.061-2.565.748-.641,1.282-1.069,2.244-.855C46.17,155.905,46.491,155.264,46.277,154.409Zm16.993,6.733c-.214.107-.641.214-.855.321a4.679,4.679,0,0,0-1.924,2.137c-.214.534-.534,1.389-1.282.214a.9.9,0,0,0-.748,0,3.343,3.343,0,0,0-1.069.534c-.855.427-1.389,1.389-.855,2.137.855,1.5.321,3.313.962,4.916a4.411,4.411,0,0,1,0,3.847c-.321.534.214.855.855.641,1.176-.427,1.282-.962.962-2.672a2.152,2.152,0,0,0,1.176-2.351,2.013,2.013,0,0,1,.214-.855c.321-.855.748-1.71,1.069-2.565.321-1.176.321-2.565,1.069-3.634A17.5,17.5,0,0,0,63.27,161.142Zm17.954-34.52c.641-1.282,1.5-2.458,2.137-3.634.748-1.389,2.031-2.458,2.031-3.847.427-.534.748-.962,1.069-1.282,1.069-1.176,1.176-2.886,2.458-3.847.321-.214.427-.748.641-1.069a19.437,19.437,0,0,1,1.6-2.458c.962-1.282,2.031-2.458,2.886-3.741a19.852,19.852,0,0,0,1.176-2.031c.641-1.5,2.244-2.137,2.886-3.741a16.561,16.561,0,0,1,2.137-3.42l2.886-4.168c.748-1.069,1.5-2.031,2.244-2.992.427-.534.748-1.176,1.176-1.817.962-1.5,1.924-2.992,2.992-4.382a18.7,18.7,0,0,1,2.031-2.137c-.107-.107-.214-.321-.321-.427-.641.534-1.282.962-1.924,1.6-1.069,1.069-2.031,2.137-3.1,3.206-.534.534-1.176.962-1.71,1.5-.641.534-1.176,1.069-1.817,1.6a10.077,10.077,0,0,1-1.069,1.069c-.214.214-.534.427-.855.748L98.11,94.026c-1.6,1.6-3.206,3.206-4.916,4.7a20.516,20.516,0,0,1-1.6,1.5c-1.282,1.176-2.992,2.031-3.847,3.741a4.1,4.1,0,0,1-1.176,1.176c-.962.962-1.924,1.924-2.992,2.886a6.428,6.428,0,0,1-1.389.962c-.534.427-1.176.748-1.71,1.176a3.914,3.914,0,0,0-1.282,1.389c-.107.534-.427.641-.748.962-.748.534-1.389,1.176-2.137,1.71-.321.214-.641.321-.962.534a11.658,11.658,0,0,0-1.176.641c-.748.641-1.389,1.389-2.031,2.031-.962.962-2.244,1.817-2.672,3.206a4.524,4.524,0,0,0-.534.748c-.427.427-.855.748-1.282,1.176-.962.534-1.817,1.176-2.779,1.817a5.714,5.714,0,0,0-1.389,1.389c-.962.962-1.5,2.458-2.886,2.886-.107,0-.107.214-.214.321-1.176,1.069-2.244,2.031-3.42,3.1-.214.214-.427.321-.534.428-.748.748-1.389,1.5-2.031,2.244-.855.855-1.6,1.71-2.458,2.565-.107.107-.107.534-.107.641.641,1.069.107,2.244.107,3.313a5.2,5.2,0,0,0,.107,1.282c.107.427.534.855.641,1.282a15.448,15.448,0,0,0,.427,3.1c.321,1.176.107,2.565,1.176,3.206a10.269,10.269,0,0,0-.107,3.1c.214,1.389,1.282,2.672.962,4.168l.214.214c1.282-.748,2.565-1.389,3.741-2.137,1.5-.962,2.992-2.137,4.6-3.1,1.71-1.069,3.42-1.924,5.13-2.992a1.917,1.917,0,0,0,.534-.748c.534-1.069.962-2.244,1.5-3.313.427-.855,1.069-1.71,1.5-2.565a38.4,38.4,0,0,0,1.817-3.634c.855-1.71,2.244-3.1,2.031-5.237,0-.107.107-.214.107-.321a25.1,25.1,0,0,0,2.031-2.672C79.835,129.722,80.369,128.118,81.224,126.622Z" transform="translate(0.025 -0.3)"/></svg>