<?xml version="1.0" encoding="UTF-8" standalone="no"?>
<svg width="325px" height="100px" viewBox="0 0 325 100" version="1.1" xmlns="http://www.w3.org/2000/svg" xmlns:xlink="http://www.w3.org/1999/xlink">
    <!-- Generator: Sketch 39.1 (31720) - http://www.bohemiancoding.com/sketch -->
    <title>logo hey</title>
    <desc>Created with Sketch.</desc>
    <defs></defs>
    <g id="Page-1" stroke="none" stroke-width="1" fill="none" fill-rule="evenodd">
        <g id="LANDING" transform="translate(-558.000000, -375.000000)" fill="#FFFFFF">
            <g id="logo" transform="translate(558.000000, 375.000000)">
                <g id="logo-hey">
                    <path d="M173.18861,14.751199 C166.815702,20.1212684 158.729542,22.6917572 151.787486,27.1046884 C148.515854,29.1859301 146.678706,30.7507442 151.466131,34.2026544 C159.74007,40.1706925 169.156177,43.9468259 177.908279,48.9460771 C179.385353,49.7906108 181.853596,49.8449716 181.66388,52.1611295 C181.493523,54.2462541 180.703685,56.5992997 178.407735,57.2186244 C170.935249,59.2319151 165.0134,64.468024 157.254404,66.1202037 C153.450405,66.9297912 150.101337,69.9914685 146.725167,72.2823875 C145.300362,73.2472915 145.10871,74.5694236 147.412404,75.1868069 C153.684646,76.8622841 159.908492,78.728024 166.496282,78.863926 C168.515402,78.906638 170.579047,79.0736033 172.10839,80.4986326 C178.463875,86.4200757 186.265461,89.2157735 194.781385,90.6136224 C197.214783,91.011621 198.778971,92.630796 198.542794,95.032378 C198.293066,97.5620962 197.313512,99.9190247 193.987675,99.9753269 C191.602674,100.014156 189.033765,99.9636782 187.150157,98.5930097 C182.217541,95.0032561 175.773006,93.8830356 171.417282,89.4118606 C170.927505,88.9109648 170.30996,88.3440594 169.65757,88.1965087 C158.731478,85.736683 148.082217,82.0246176 136.763143,81.3451077 C136.05074,81.3004542 135.071186,81.2266789 134.641421,81.6110873 C129.577166,86.1540962 128.431127,81.2189131 127.00245,78.4212738 C124.778127,74.0646448 128.700214,73.3482473 131.602094,71.8475012 C138.06986,68.5004297 144.767995,65.3960404 149.834186,60.0376197 C151.367401,58.4165032 153.204549,58.0786898 155.23722,58.1291676 C157.271827,58.1796455 159.292883,58.0573337 161.060339,57.0730152 C162.760039,56.1275257 164.972747,55.0247783 164.963067,53.08138 C164.955324,51.104977 162.46385,50.7555148 160.804803,50.2682092 C151.758448,47.6122963 144.839623,41.7335652 137.891759,36.0120921 C132.235126,31.3525958 132.7733,28.246265 139.703741,25.4253283 C149.228257,21.5482391 156.965958,14.7744964 166.339476,10.6353106 C170.116372,8.96759923 179.458916,-0.0912380707 181.958134,0.289287457 C185.057473,0.759119996 183.59395,3.27524797 183.971446,4.76046241 C183.971446,4.76046241 173.80809,14.2289471 173.18861,14.751199 Z" id="Fill-1"></path>
                    <path d="M220.881068,31.2877312 C223.2138,25.6342091 221.463767,20.3126761 221.521844,15.0105576 C221.562497,11.4382772 220.633276,7.8038701 222.168427,4.3364283 C223.211864,1.98144123 225.002551,0.15453041 227.972187,1.05536635 C230.742427,1.89601714 229.567349,4.18499467 229.530568,6.11091979 C229.366018,15.0202649 226.890031,23.9354344 229.172431,33.2932561 C236.503598,30.3888367 242.419639,26.1719926 247.350318,21.3047605 C251.055587,17.6470559 255.719116,14.9969674 258.955902,10.9432057 C260.444592,9.08329011 262.725055,8.93768085 264.76547,9.71038065 C267.740913,10.8364256 267.754465,13.6437721 268.217139,16.1055393 C268.575277,18.0120498 267.694452,19.4894984 265.766319,19.8195461 C257.860196,21.1746829 253.610945,27.6222608 247.26514,31.1576536 C243.832829,33.07193 241.443957,36.6247959 237.98648,38.4711213 C230.436558,42.5015856 229.031111,48.5278674 230.676607,55.5714725 C233.212606,66.4261574 230.45011,77.4594562 232.302744,88.3529702 C232.734445,90.8923956 230.560455,93.5017135 227.838611,94.893738 C226.359601,95.6509062 224.777989,95.2160199 223.612591,94.0278483 C221.368909,91.7446951 221.874173,89.3450546 222.633037,86.5124691 C225.606545,75.3898633 225.461354,64.1061165 223.711321,52.8126625 C223.684218,52.6359899 223.678411,52.4224297 223.568066,52.2923521 C214.270047,41.2804092 211.449474,26.4515624 199.452843,17.0083167 C197.00783,15.0823915 192.779874,14.2165018 193.860093,9.83075097 C194.338255,7.8892942 194.568624,5.81193545 197.135598,5.20425948 C199.783878,4.57716894 201.10221,6.23517302 202.135969,8.02131326 C207.101494,16.6161424 215.93103,22.496815 220.881068,31.2877312" id="Fill-3"></path>
                    <g id="Group-2" transform="translate(0.000000, 51.735099)">
                        <path d="M310.069889,-6.99408411 C310.081849,-7.96954614 309.808491,-8.96197272 310.260101,-9.90880706 C310.567059,-10.5518698 311.093842,-11.0507338 311.967448,-10.8047477 C312.782395,-10.5751961 312.436712,-9.95015817 312.425891,-9.4242569 C312.377484,-6.9914334 312.278961,2.1582944 312.763032,4.08165105 C313.509071,7.04567724 312.696401,10.0584765 313.241408,13.0331056 C313.368406,13.7265319 312.728863,14.4390432 311.928152,14.8191554 C311.493058,15.0259109 311.02778,14.907159 310.684944,14.5827118 C310.024899,13.9592644 310.173537,13.3040084 310.39678,12.5305306 C311.271524,9.49334474 310.704307,3.22176007 310.671846,3.18624052" id="Fill-3-Copy" transform="translate(311.628148, 2.026589) rotate(90.000000) translate(-311.628148, -2.026589) "></path>
                        <path d="M11.8135941,-6.99408411 C11.8255535,-7.96954614 11.5521957,-8.96197272 12.0038055,-9.90880706 C12.3107634,-10.5518698 12.8375465,-11.0507338 13.7111522,-10.8047477 C14.5260999,-10.5751961 14.1804163,-9.95015817 14.1695959,-9.4242569 C14.1211888,-6.9914334 14.0226661,2.1582944 14.506737,4.08165105 C15.2527758,7.04567724 14.4401061,10.0584765 14.9851131,13.0331056 C15.1121105,13.7265319 14.4725673,14.4390432 13.671857,14.8191554 C13.2367627,15.0259109 12.771485,14.907159 12.4286489,14.5827118 C11.7686039,13.9592644 11.9172422,13.3040084 12.1404843,12.5305306 C13.015229,9.49334474 12.4480118,3.22176007 12.4155505,3.18624052" id="Fill-3-Copy-2" transform="translate(13.371852, 2.026589) rotate(-90.000000) translate(-13.371852, -2.026589) "></path>
                    </g>
                    <path d="M106.378856,60.3676673 C95.2920866,57.6185645 86.0289138,51.4272589 76.231439,46.5813828 C72.870756,44.9194958 73.6605939,40.9239777 74.1503709,38.396201 C74.6498272,35.8218293 77.7123851,37.4681847 79.2978686,38.0797435 C85.6707766,40.5356864 92.2043624,42.75283 97.415744,47.6996619 C98.4824124,48.7131023 99.6807204,49.73625 100.995181,50.2701506 C105.14183,51.9495107 106.827979,55.0616659 106.378856,60.3676673 M116.089216,62.8799124 C119.467322,58.0883971 121.457404,53.8171922 115.452313,50.0818293 C114.623757,49.5673433 114.192056,47.7054862 114.190121,46.4668368 C114.178505,34.8297449 111.803184,23.2683698 113.21831,11.5885659 C113.516435,9.12679869 113.853278,6.64367548 113.830047,4.17414246 C113.799073,0.875607402 111.379227,0.357238444 108.901304,0.0601955576 C105.83681,-0.308681229 106.522111,2.20356384 106.316908,3.87904103 C106.134935,5.36231401 106.268511,6.89024049 106.274318,8.3987524 C106.322715,20.0125468 108.33022,31.5739219 107.153207,44.3021125 C97.1892463,37.0100009 87.2523883,31.6146925 76.6689472,27.5337504 C73.5366978,26.3261642 72.2067501,23.7886802 72.8030003,20.2494045 C73.4128017,16.6247047 73.2347009,12.9922391 72.6152202,9.40830992 C71.9686372,5.66712272 70.8458284,1.74926295 66.1939153,2.80153252 C61.656219,3.8266217 63.6966336,8.21237255 64.4574334,10.3518579 C67.7968217,19.7523916 63.1662032,30.018815 67.6477591,39.1805495 C67.9439484,39.7862841 67.7793988,40.7045931 67.6748614,41.4539954 C66.8888952,47.1016932 64.0160534,52.8794685 68.8867206,58.134992 C69.3726258,58.6591853 69.148064,59.9813174 69.1441923,60.9345727 C69.1074106,70.4535352 70.5902926,80.0113269 68.3543543,89.4798116 C67.9671789,91.1164597 68.1356002,92.9045414 68.0833315,94.6246721 C68.029127,96.3778075 68.8828488,97.4650233 70.4141278,98.0552262 C72.0751105,98.6978484 73.5308902,98.6007755 74.9111707,97.2223412 C76.6534602,95.482796 76.6437808,93.3200131 77.0135334,91.0155039 C78.5525558,81.3722881 73.7031832,72.3639287 74.8840684,62.7304202 C75.5693689,57.1351418 75.8403918,56.473105 81.073068,58.6397708 C88.4855421,61.7072725 95.8263887,64.9669784 103.178851,68.1897966 C110.153816,71.2475911 111.466341,73.563749 109.509169,81.2325032 C108.430886,85.4571132 108.448309,89.5768845 109.116186,93.6947143 C109.456901,95.7992534 108.899368,99.6705182 112.486549,99.0007156 C115.90918,98.3639178 117.544996,95.4226108 116.573185,91.6348286 C115.216136,86.3463004 115.986615,80.9781724 115.787219,75.6469321 C115.729143,74.1015325 115.80077,72.4920649 117.279781,71.6028777 C123.339077,67.9587633 120.847602,65.1688899 116.089216,62.8799124" id="Fill-5"></path>
                </g>
            </g>
        </g>
    </g>
</svg>