<?xml version="1.0" encoding="UTF-8" standalone="no"?>
<svg width="69px" height="114px" viewBox="0 0 69 114" version="1.1" xmlns="http://www.w3.org/2000/svg" xmlns:xlink="http://www.w3.org/1999/xlink">
    <!-- Generator: Sketch 39.1 (31720) - http://www.bohemiancoding.com/sketch -->
    <title>Icon venta</title>
    <desc>Created with Sketch.</desc>
    <defs></defs>
    <g id="Page-1" stroke="none" stroke-width="1" fill="none" fill-rule="evenodd" opacity="0.468458489">
        <g id="hover-venta" transform="translate(-302.000000, -688.000000)" fill="#03E1DE">
            <path d="M353.241524,742.852198 C353.256116,744.73699 347.543374,752.081597 345.821526,751.923517 C343.391969,751.699774 342.728036,748.963787 340.925932,747.691856 C339.556722,746.721493 340.261999,745.357147 341.008619,744.253024 C342.000871,742.786535 343.02717,741.334637 344.133725,739.950835 C345.24028,738.567034 345.498071,736.025605 348.234059,736.718722 C350.050755,737.178368 353.229364,741.103598 353.241524,742.852198 M326.438573,758.10077 C325.502257,758.94467 324.716725,757.911074 324.152503,757.07447 C321.365444,752.923065 319.332301,748.304718 316.0783,744.430559 C314.816097,742.930022 315.628382,741.293293 317.026775,740.155122 C318.668368,738.81996 320.414536,737.613694 322.097472,736.327172 C322.946237,735.675399 324.009016,735.186569 324.655925,736.20314 C327.340841,740.432369 329.877405,744.758878 332.258323,748.705996 C331.467926,752.988729 329.113761,755.6931 326.438573,758.10077 M369.839849,697.361843 C370.924517,695.326268 370.909925,693.263942 370.384615,691.199183 C369.912809,689.353303 368.691951,687.874654 366.619896,688.008413 C364.698625,688.130013 364.063875,689.732693 363.737989,691.444814 C363.344007,693.516868 363.108104,695.659451 362.397963,697.624498 C358.944539,707.199239 353.088309,715.472866 347.93006,724.133179 C346.64597,726.287921 342.956643,726.270897 343.06365,728.430503 C343.292257,733.112082 339.821809,735.653511 338.199672,739.223671 C336.168961,743.696098 334.56628,741.662956 333.192207,739.089911 C329.605023,732.367893 325.818416,725.796659 321.854274,719.276496 C316.786008,710.937206 307.870337,704.832913 306.732166,694.112706 C306.593542,692.811592 305.146509,691.943371 303.687315,692.366538 C302.490777,692.714312 302.006811,693.850051 302.001947,695.080637 C301.980059,699.84004 302.079771,704.516755 305.72289,708.315522 C310.358261,713.150316 313.512551,719.096529 317.408598,724.488249 C319.08667,726.81323 319.546316,728.933925 316.50633,731.069211 C312.97265,733.552272 309.862136,736.648194 306.647046,739.566581 C303.840531,742.115306 303.441684,745.490906 306.608134,747.380562 C313.758182,751.646271 315.959132,759.705882 321.367876,765.221634 C322.282304,766.155517 322.112064,767.422584 321.518659,768.429427 C317.646933,774.993366 314.531555,782.262581 309.497337,787.778332 C306.403847,791.168525 306.221448,794.42739 305.4043,798.141037 C305.603723,799.473767 305.460235,801.003488 307.376643,801.54339 C309.324666,802.093019 311.165682,801.747677 312.204141,800.191204 C313.617127,798.080238 314.896353,795.743096 315.594334,793.318403 C317.389142,787.085215 321.795906,782.223669 324.009016,776.155856 C326.494509,769.343855 332.260755,764.205062 334.836231,757.305509 C335.672835,755.063215 337.496827,753.635638 339.038708,756.018987 C341.626345,760.017177 345.225688,763.76244 344.887642,769.095792 C344.644443,772.938335 346.030677,776.095057 348.572105,778.843204 C350.597952,781.03929 352.49004,783.578287 352.631095,786.465058 C352.823222,790.448656 354.763949,793.211395 357.317538,795.774712 C358.825371,797.287409 360.221333,799.80695 362.906249,797.338481 C365.321214,795.118075 365.034239,792.734726 363.132424,790.438928 C357.774752,783.967405 356.621989,775.238996 351.329981,768.682354 C350.126146,767.191545 350.024003,764.701188 349.705412,762.626701 C349.197126,759.331356 350.111554,756.733992 353.168565,754.715441 C356.237735,752.692026 359.027226,750.167621 361.668366,747.587281 C364.309506,745.009373 364.37517,741.930474 361.575951,739.45471 C358.988314,737.166208 357.237282,733.909775 354.737197,732.003095 C350.138306,728.496167 352.086329,725.796659 354.418607,722.742081 C360.466964,714.825956 365.170431,706.11214 369.839849,697.361843" id="Icon-venta"></path>
        </g>
    </g>
</svg>