<?xml version="1.0" encoding="UTF-8" standalone="no"?>
<svg width="64px" height="90px" viewBox="0 0 64 90" version="1.1" xmlns="http://www.w3.org/2000/svg" xmlns:xlink="http://www.w3.org/1999/xlink">
    <!-- Generator: Sketch 39.1 (31720) - http://www.bohemiancoding.com/sketch -->
    <title>Fill 1</title>
    <desc>Created with Sketch.</desc>
    <defs></defs>
    <g id="Page-1" stroke="none" stroke-width="1" fill="none" fill-rule="evenodd" opacity="0.411438899">
        <g id="hover-pre-venta" transform="translate(-1067.000000, -696.000000)" fill="#FDC072">
            <path d="M1122.3891,766.586593 C1116.22998,764.531045 1109.94121,762.979051 1104.12592,760.059196 C1102.04031,759.012633 1101.10085,757.627863 1103.21276,755.788393 C1107.46478,752.088783 1111.8051,748.484999 1116.5851,745.480592 C1117.43625,744.945098 1118.61434,744.127764 1119.71163,744.911277 C1120.71686,745.630907 1119.86758,746.773295 1119.99347,747.67706 C1120.58909,751.976047 1121.29557,756.26564 1122.15048,760.519534 C1122.54693,762.490529 1123.14443,764.384489 1122.3891,766.586593 M1098.58872,753.791092 C1096.64779,755.320539 1094.86844,754.497569 1093.08346,753.295055 C1088.22643,750.02572 1084.17358,745.634665 1078.81864,743.060533 C1077.43575,742.393513 1077.89796,741.531085 1078.5725,740.640473 C1079.7318,739.111026 1081.23494,737.972395 1082.8527,736.991595 C1087.26442,734.316001 1091.56529,731.475062 1095.52607,728.162511 C1096.96721,726.956239 1098.2693,726.681916 1099.2501,728.403014 C1101.93133,733.104092 1107.0082,734.590325 1111.08547,737.40308 C1112.23162,738.194109 1113.44353,738.804761 1113.93017,740.118131 C1113.8832,741.320645 1113.21242,742.100401 1112.43454,742.727963 C1107.83868,746.442604 1103.22967,750.136577 1098.58872,753.791092 M1090.949,760.56087 C1086.80972,765.010172 1083.23412,769.998726 1077.69128,773.040711 C1074.86725,774.590827 1074.09689,773.437165 1073.91276,770.990801 C1073.64031,767.355075 1073.54637,763.704317 1073.37538,760.061075 C1073.4449,760.059196 1073.51442,760.057317 1073.58394,760.055438 C1073.58394,756.780467 1073.57831,753.505495 1073.58582,750.230523 C1073.59146,748.3065 1074.50838,747.735306 1076.23699,748.53573 C1081.65958,751.047857 1086.2855,754.704251 1090.71225,758.65 C1091.40182,759.266289 1091.59535,759.869425 1090.949,760.56087 M1072.69521,734.470073 C1072.31755,730.313884 1072.83989,726.193395 1072.80607,722.055995 C1072.80607,718.157219 1072.8211,714.260322 1072.80043,710.361546 C1072.78916,708.228962 1073.78687,707.612674 1075.64137,708.510801 C1082.44309,711.802684 1088.16443,716.535704 1093.36342,721.950775 C1094.18076,722.801929 1093.94025,723.574169 1093.07407,724.149121 C1087.16672,728.072323 1081.21991,731.939157 1075.33135,735.890543 C1073.37163,737.205793 1072.88498,736.533136 1072.69521,734.470073 M1103.02863,722.700467 C1108.15622,719.301486 1111.07984,713.687249 1116.07215,710.226263 C1116.94773,709.619369 1117.89847,708.46007 1119.05025,709.198489 C1119.99159,709.801625 1119.52938,711.039839 1119.31894,712.950709 C1121.70893,718.551794 1119.5181,725.282114 1120.32792,731.871516 C1120.67552,734.697424 1119.58386,735.345654 1117.18072,733.977794 C1112.74269,731.450636 1108.29714,728.938509 1103.90985,726.326798 C1102.50253,725.488796 1101.2831,723.856008 1103.02863,722.700467 M1129.51776,773.555538 C1128.99354,772.567221 1128.26827,771.496232 1128.25888,770.455306 C1128.20063,764.143986 1126.98308,758.063775 1125.25071,752.021142 C1124.57054,749.646176 1123.896,747.081439 1124.58181,744.561797 C1127.00187,735.680103 1123.47512,726.480871 1126.06805,717.59354 C1126.34613,716.640924 1125.52879,715.417741 1125.45176,714.305416 C1125.13046,709.702042 1125.75239,705.162551 1126.86471,700.718886 C1127.20668,699.352905 1129.05742,698.035777 1127.91691,696.669796 C1126.50772,694.982518 1124.99142,696.87272 1123.53901,697.318026 C1122.8175,697.537861 1122.21812,697.864794 1121.66947,698.475446 C1115.63248,705.203888 1108.15059,710.42355 1102.12486,717.174539 C1100.29479,719.222571 1098.39707,719.4875 1096.49747,717.071198 C1095.2555,715.494777 1093.5701,714.363663 1092.03502,713.072839 C1086.30805,708.257146 1079.21509,705.185098 1074.43134,699.161255 C1073.26077,697.688175 1071.62046,697.318026 1069.66638,698.146633 C1067.6052,699.020335 1067.46803,700.470868 1067.49622,702.39489 C1067.67659,714.22838 1067.84194,726.063749 1067.78745,737.899117 C1067.77054,741.696431 1066.15654,745.429861 1068.68746,749.18396 C1069.85991,750.923847 1068.24403,753.272508 1068.2196,755.431396 C1068.12566,763.336047 1068.03735,771.231303 1068.57284,778.570397 C1068.46387,779.500466 1068.4432,779.88001 1068.3718,780.250159 C1067.88328,782.79047 1068.52399,784.844138 1071.16389,785.659593 C1073.87142,786.495716 1074.65305,784.355617 1075.37456,782.469173 C1075.94952,780.967909 1077.01863,779.951409 1078.21362,779.028855 C1084.36148,774.273288 1089.90056,768.860096 1095.28557,763.285316 C1096.48056,762.047102 1097.42379,762.575081 1098.60375,763.206401 C1102.03655,765.043993 1105.34347,767.432111 1109.01865,768.422306 C1114.8997,770.008121 1119.44482,773.215452 1123.54277,777.450556 C1125.14549,779.10777 1127.11649,779.135954 1129.0236,777.854525 C1130.83489,776.640738 1130.35764,775.137595 1129.51776,773.555538" id="Fill-1"></path>
        </g>
    </g>
</svg>