<?xml version="1.0" encoding="UTF-8" standalone="no"?>
<svg width="34px" height="35px" viewBox="0 0 34 35" version="1.1" xmlns="http://www.w3.org/2000/svg" xmlns:xlink="http://www.w3.org/1999/xlink">
    <!-- Generator: Sketch 39.1 (31720) - http://www.bohemiancoding.com/sketch -->
    <title>Fill 1</title>
    <desc>Created with Sketch.</desc>
    <defs></defs>
    <g id="Page-1" stroke="none" stroke-width="1" fill="none" fill-rule="evenodd">
        <g id="Preventa" transform="translate(-484.000000, -730.000000)" fill="#FFFFFF">
            <g id="Page-1" transform="translate(463.000000, 710.000000)">
                <path d="M47.6215854,40.5257631 C46.5406965,41.3947732 44.7504743,42.4802682 41.9929793,41.6419651 C41.7473228,41.5713389 41.4847773,41.4922682 41.2206965,41.4108944 C40.1950804,41.09845 39.1333834,40.7752581 38.1545955,40.7906116 C37.2717672,40.8098035 36.517141,40.388349 35.8507975,40.0167934 C35.455444,39.7957025 35.0815854,39.5868944 34.7330601,39.5009146 C34.4743531,39.4632985 34.187242,39.2951773 33.9914844,39.0387732 C33.8548379,38.8622076 33.785747,38.6748944 33.7535046,38.5013995 C33.3213026,38.3923894 32.921343,38.1336823 32.5589995,37.858854 C32.5121713,37.8197025 32.4645753,37.7797833 32.417747,37.7390965 C30.4118076,35.982652 29.5282117,32.9779651 30.4210197,30.9336419 C30.617545,30.4814803 30.7848985,30.0101268 30.9622319,29.5103692 C31.1380298,29.0136823 31.3199692,28.5008742 31.5326157,28.0126318 C31.7905551,27.316349 32.0669187,26.9616823 32.4599692,26.8426924 C32.6142723,26.2776823 33.0119288,25.7326318 33.6467975,25.2159853 C36.0972218,23.1923894 39.0942319,22.9413591 41.9538278,22.85845 C43.1038076,22.8469348 44.0595652,23.3597429 44.9024743,23.8126722 C45.313949,24.0329954 45.7054642,24.2441066 46.0923733,24.3830561 C46.5952016,24.2748136 47.3966561,24.3554197 48.3240096,25.3564702 C51.0861107,28.1630965 52.0464743,31.1670156 51.1598076,34.2653591 C50.6124541,36.1546116 49.90005,37.5556217 48.9166561,38.6779651 C48.705545,38.9197833 48.4790804,39.0817631 48.2311208,39.1646722 C48.2487773,39.250652 48.2579894,39.3373995 48.2579894,39.4226116 C48.2595248,39.8540459 48.045343,40.2248338 47.6215854,40.5257631 M53.2601713,35.9481066 C54.3118884,33.9851571 54.3234036,31.6882682 53.7115652,29.6685106 C52.7788379,26.7091167 50.8281713,24.2602278 47.845747,22.55445 C45.3753632,21.1334803 42.901141,20.6966722 40.3969793,20.7289146 C36.5662723,20.7527126 33.6061107,22.6104904 30.7541915,24.5626924 C30.0609793,25.0279045 30.3143127,25.8262884 29.9059086,26.2922682 C29.7830804,26.4319853 29.6203329,26.6185308 29.4975046,26.7590156 C28.411242,27.4552985 28.4995248,28.7687934 28.1563733,29.7045914 C27.6888581,31.1079045 27.3426359,32.7000662 27.5107571,34.2484702 C27.8116864,36.6804702 29.6234036,38.2872177 31.251646,40.008349 C30.211444,41.3410358 28.867242,43.4206722 27.2842925,46.0261672 C25.1678076,47.5530763 24.5198884,50.4971167 22.3934238,51.8866116 C21.4637672,52.5022884 21.1689793,53.284551 21.9236056,54.2057631 C22.7511612,55.1906924 23.6439692,55.0617227 24.4914844,54.2433793 C24.9421107,53.7282682 25.3290197,53.2860864 25.7804137,52.7709752 C30.1446561,47.4901268 29.0829591,47.6620864 33.5945955,42.5102076 C33.7742319,42.3052379 33.9339086,42.1517025 34.0859086,42.0219651 C35.4976662,42.644551 36.8219086,43.6394601 38.4010197,43.45445 C38.5368985,43.4083894 38.7526157,43.5972379 38.901545,43.6448338 C42.0490197,44.8355005 45.0936258,44.9475813 47.6745551,43.0875005 C50.2147975,41.274248 51.797747,38.7056015 53.2601713,35.9481066" id="Fill-1"></path>
            </g>
        </g>
    </g>
</svg>